<?xml version="1.0" encoding="UTF-8"?>
<svg xmlns="http://www.w3.org/2000/svg" id="Camada_1" data-name="Camada 1" viewBox="0 0 512 512">
  <defs>
    <style>
      .cls-1 {
        fill: #0f4e8b;
      }

      .cls-2 {
        fill: #fab71c;
      }
    </style>
  </defs>
  <path class="cls-2" d="M100.68,182.95c33.45-42.45,125.71-127.48,251.49-127.48,88.29,0,155.15,50.31,155.15,50.31-49.71-24.19-246.3-63.51-401.04,79.62l-5.59-2.46Z"></path>
  <path class="cls-1" d="M192.29,227.43c3.34-16.44,14.75-27.16,32.3-27.16s28.95,10.95,31.46,27.16h-63.76ZM497.02,197.96c3.39,0,6.72.27,9.95.77v-27.34c-5.99-.82-12.39-1.22-19.32-1.22-48.06,0-84.35,28.77-84.35,67.25,0,2.63.17,5.19.49,7.69-7.05-11.85-22.69-17.87-44.94-22.47-28.34-5.76-32.26-8.27-31.69-14.5.54-5.94,10.06-11.42,24.26-11.42,9.09,0,21.25,2.16,32.08,7.21v-28.62c-10.44-3.2-21.84-5.33-34.15-5.33-35.77,0-59.76,17.14-61.67,40.67-.01.15-.01.29-.03.44-8.64-23.19-28.82-40.57-63.57-40.57-41.81,0-70.37,30.57-70.37,67.64,0,.94.02,1.87.05,2.79-7.86-17.06-28.37-24.92-56.05-30.96-32.69-7.02-37.35-10.23-37.35-17.69s8.36-13.26,21.37-12.98c10.13.21,16.16,2.64,18.94,3.64h0c8.08-10.02,16.75-19.63,25.96-28.76-13.69-4.99-28.64-7.56-44.76-7.56-38.88,0-66.05,19.45-66.05,48.71,0,22.44,11.74,32.65,32.27,39.63,1.1.34,4.32,1.34,6.18,1.95,7.08,2.05,15.01,3.87,23.72,5.73,32.08,6.88,34.75,12.67,34.75,19.04,0,7.5-8.93,11.98-23.86,11.98-17.08,0-32.88-5.03-49.43-15.73-8.48,11.47-17.23,24.07-21.9,31.79,20.79,11.32,45.07,18.3,70.55,18.3,41.52,0,67.73-17.88,69.11-47.15,8.78,26.66,33.35,43.97,66.55,43.97,6.39,0,15.57-.21,30.69-3.97v-28.43c-14.05,4.07-20.08,4.49-28.33,4.06-16.51-.85-29.98-10.16-33.86-26.46h99.87c.26-3.34.52-5.48.52-9.06v-.48c0-3.51-.19-7-.58-10.43,7.59,10.47,24.23,14.73,47.07,19.35,27.81,5.65,29.35,9.9,29.35,16.42,0,5.75-7.41,12.36-23.83,11.82-16.88-.56-36.63-5.59-51.9-14.21v32.83c15.92,7.13,36.11,11.56,51.79,11.56,37.62,0,63.44-22.04,63.44-45.84,0-.53-.02-1.04-.04-1.56,6.66,15.6,19.74,27.44,34.61,34.67,14.82,7.21,30.67,9.47,43.7,9.56,7.66.06,14.3-.5,20.69-1.52v-27.77c-3.23.52-6.55.79-9.95.79-27.83,0-50.42-17.52-50.42-39.12s22.59-39.12,50.42-39.12"></path>
  <path class="cls-2" d="M55.57,237.35c-10.11,11.75-30.03,39.19-37.99,52.38-7.84-4.57-11.97-7.52-15.64-10.35,12.1-13.24,30.62-32.76,45.78-44.52,0,0,6.92,2.14,7.85,2.49"></path>
  <path class="cls-1" d="M199.7,402.28c1.02,0,2.08.05,3.31.16v-15.27c-1.06-.05-2.21-.13-3.3-.13-21.32,0-43.88,7.43-49.87,24.55v-24.53h-22.58v46.67s-17.55-19.46-27.66-30.67c-10.44-11.58-23.08-16-35.58-16v54.19h-10.71c-16.66-.12-28.27-8.52-28.27-20.41,0-10.73,9.35-17.15,23.55-18.36v-15.31c-23.26,1.3-46.33,11.55-46.33,33.72,0,25.47,26.26,35.5,50.99,35.61h0s.43,0,.43,0h33.22v-44.23l39.84,44.23h23.09v-25.61c5.99,18.26,28.55,25.63,49.87,25.63,1.09,0,2.16-.05,3.22-.11h.07v-15.3c-1.24.11-2.3.16-3.31.16-16.85,0-28.62-8.44-28.62-20.42s11.63-18.58,28.62-18.58"></path>
  <path class="cls-1" d="M510.06,443.7c-.3,0-.59.02-.9.02-12.38,0-21.35-7.92-21.35-18.83v-.24c0-10.44,8.99-18.62,20.47-18.62.62,0,1.21.02,1.78.05v-12.54c-.53-.02-1.08-.02-1.63-.02-19.93,0-35.52,10.58-38.81,25.45-1.41-11.78-9.59-18.63-26.14-18.63-.74,0-3.31.01-4.01.03v12.66c3.27.03,7.74.58,9.74,1.63,2.93,1.54,4.45,4.14,4.52,7.66-4-.47-8.52-.79-12.45-.89-15.55-.4-23.46,4.58-25.37,12.62v-8.22c0-14.15-8.65-25.2-26.96-25.2-16.77,0-25.44,9.25-26.79,21.66-2.14-12.24-10.94-22.26-27.91-22.26s-29.25,12.3-29.25,27.23v.19c0,.37.01.73.02,1.09-3.45-5.63-11.12-8.71-22.27-11.12-13.27-2.83-15.13-4.19-15.13-8.38v-.19c0-3.09,3.4-5.55,9.87-5.55,3.3,0,7.6.9,10.63,2.02v-13.37c-2.81-.49-7.13-1.04-10.4-1.04-15.69,0-26.86,7.66-26.86,19.25v.17c0,12.67,9.96,16.22,25.43,19.5,12.83,2.74,14.03,4.56,14.03,8.12v.18c0,3.74-4.17,6.01-11.08,6.01-8.77,0-14.58-3.01-21.49-7.75l-9.99,9.94c9.21,6.84,19.52,10.21,31.14,10.21,16.08,0,27.5-6.7,28.15-18.69,4.37,10.19,15.24,16.64,28.83,16.64.51,0,2.16-.07,2.67-.08v-11.92c-.42.02-2.01.1-2.46.1-7.51,0-12.8-3.5-14.47-10.25h40.32v21.19h16.96v-28.72c.31-5.24,2.36-11.43,10.02-11.43s9.86,6.19,10.16,11.43v28.72h16.8v-11.48c1.99,7.89,10.17,12.16,19.83,12.16,8.18,0,13.81-2.65,17.88-6.64v6.03h16.22v-21.8c3.74,14.15,19.22,24.46,38.29,24.46.67,0,1.28-.02,1.92-.03v-12.51ZM453.79,434.9h0c-1.46,7.65-9.35,8.79-11.14,8.89-12.76.67-13.22-8.06-8.93-10.71,5.77-3.58,20.12-1.57,20.12-1.57,0,.52.14,1.82-.05,3.39M321.45,423.07c1.33-6.73,5.86-11.13,12.81-11.13s11.47,4.49,12.47,11.13h-25.28Z"></path>
</svg>
